<mxfile host="app.diagrams.net" modified="2021-07-03T12:44:47.905Z" agent="5.0 (Windows NT 10.0; Win64; x64) AppleWebKit/537.36 (KHTML, like Gecko) Chrome/77.0.3865.90 Safari/537.36" etag="fJMfzWT27keYLa6JD-sx" version="14.7.0" type="github">
  <diagram id="uYeV0siJYQAACT14ZXtu" name="第 1 页">
    <mxGraphModel dx="2017" dy="980" grid="1" gridSize="10" guides="1" tooltips="1" connect="1" arrows="1" fold="1" page="1" pageScale="1" pageWidth="827" pageHeight="1169" math="0" shadow="0">
      <root>
        <mxCell id="0" />
        <mxCell id="1" parent="0" />
        <mxCell id="WLACIexDh8U1j82Fo1IX-1" value="" style="whiteSpace=wrap;html=1;shadow=1;fontSize=18;fillColor=#647687;strokeColor=#314354;fontColor=#ffffff;sketch=0;glass=1;rounded=1;" vertex="1" parent="1">
          <mxGeometry x="30" y="400" width="493" height="280" as="geometry" />
        </mxCell>
        <mxCell id="WLACIexDh8U1j82Fo1IX-2" value="&lt;font&gt;&lt;font style=&quot;font-size: 24px&quot;&gt;Plant Model&lt;/font&gt;&lt;br&gt;&lt;/font&gt;" style="rounded=1;whiteSpace=wrap;html=1;gradientDirection=south;shadow=1;glass=1;" vertex="1" parent="1">
          <mxGeometry x="50" y="460" width="200" height="60" as="geometry" />
        </mxCell>
        <mxCell id="WLACIexDh8U1j82Fo1IX-3" style="edgeStyle=orthogonalEdgeStyle;rounded=0;sketch=0;orthogonalLoop=1;jettySize=auto;html=1;exitX=0.25;exitY=1;exitDx=0;exitDy=0;entryX=0.75;entryY=0;entryDx=0;entryDy=0;shadow=1;strokeColor=#FFFFFF;strokeWidth=3;" edge="1" parent="1" source="WLACIexDh8U1j82Fo1IX-4" target="WLACIexDh8U1j82Fo1IX-6">
          <mxGeometry relative="1" as="geometry">
            <Array as="points">
              <mxPoint x="360" y="580" />
              <mxPoint x="190" y="580" />
            </Array>
          </mxGeometry>
        </mxCell>
        <mxCell id="WLACIexDh8U1j82Fo1IX-4" value="&lt;font&gt;&lt;font style=&quot;font-size: 24px&quot;&gt;Control Model&lt;/font&gt;&lt;br&gt;&lt;/font&gt;" style="rounded=1;whiteSpace=wrap;html=1;shadow=1;gradientColor=none;glass=1;" vertex="1" parent="1">
          <mxGeometry x="310" y="460" width="200" height="60" as="geometry" />
        </mxCell>
        <mxCell id="WLACIexDh8U1j82Fo1IX-5" value="" style="endArrow=classic;startArrow=classic;html=1;strokeColor=#FFFFFF;entryX=0;entryY=0.5;entryDx=0;entryDy=0;exitX=1;exitY=0.5;exitDx=0;exitDy=0;strokeWidth=3;sketch=0;shadow=1;" edge="1" parent="1" source="WLACIexDh8U1j82Fo1IX-2" target="WLACIexDh8U1j82Fo1IX-4">
          <mxGeometry width="50" height="50" relative="1" as="geometry">
            <mxPoint x="330" y="610" as="sourcePoint" />
            <mxPoint x="380" y="560" as="targetPoint" />
          </mxGeometry>
        </mxCell>
        <mxCell id="WLACIexDh8U1j82Fo1IX-6" value="&lt;font style=&quot;font-size: 16px&quot;&gt;Data logging/Analysis&lt;/font&gt;" style="rounded=1;whiteSpace=wrap;html=1;shadow=1;glass=1;sketch=0;gradientColor=none;" vertex="1" parent="1">
          <mxGeometry x="70" y="610" width="160" height="40" as="geometry" />
        </mxCell>
        <mxCell id="WLACIexDh8U1j82Fo1IX-7" style="edgeStyle=orthogonalEdgeStyle;rounded=0;sketch=0;orthogonalLoop=1;jettySize=auto;html=1;exitX=0.5;exitY=0;exitDx=0;exitDy=0;shadow=1;strokeColor=#FFFFFF;strokeWidth=3;entryX=0.5;entryY=1;entryDx=0;entryDy=0;" edge="1" parent="1" source="WLACIexDh8U1j82Fo1IX-9" target="WLACIexDh8U1j82Fo1IX-4">
          <mxGeometry relative="1" as="geometry">
            <mxPoint x="330" y="750" as="targetPoint" />
          </mxGeometry>
        </mxCell>
        <mxCell id="WLACIexDh8U1j82Fo1IX-8" style="edgeStyle=orthogonalEdgeStyle;rounded=0;sketch=0;orthogonalLoop=1;jettySize=auto;html=1;exitX=0.25;exitY=0;exitDx=0;exitDy=0;entryX=0.75;entryY=1;entryDx=0;entryDy=0;shadow=1;strokeColor=#FFFFFF;strokeWidth=3;" edge="1" parent="1" source="WLACIexDh8U1j82Fo1IX-9" target="WLACIexDh8U1j82Fo1IX-2">
          <mxGeometry relative="1" as="geometry" />
        </mxCell>
        <mxCell id="WLACIexDh8U1j82Fo1IX-9" value="&lt;font style=&quot;font-size: 24px&quot;&gt;Simulus file&lt;/font&gt;" style="rounded=1;whiteSpace=wrap;html=1;shadow=1;glass=1;sketch=0;gradientColor=none;" vertex="1" parent="1">
          <mxGeometry x="335" y="610" width="150" height="40" as="geometry" />
        </mxCell>
        <mxCell id="WLACIexDh8U1j82Fo1IX-10" value="" style="endArrow=classic;html=1;shadow=1;strokeColor=#FFFFFF;strokeWidth=3;exitX=0.5;exitY=1;exitDx=0;exitDy=0;entryX=0.5;entryY=0;entryDx=0;entryDy=0;" edge="1" parent="1" source="WLACIexDh8U1j82Fo1IX-2" target="WLACIexDh8U1j82Fo1IX-6">
          <mxGeometry width="50" height="50" relative="1" as="geometry">
            <mxPoint x="160" y="580" as="sourcePoint" />
            <mxPoint x="210" y="530" as="targetPoint" />
          </mxGeometry>
        </mxCell>
        <mxCell id="WLACIexDh8U1j82Fo1IX-11" value="" style="whiteSpace=wrap;html=1;shadow=1;fontSize=18;fillColor=#647687;strokeColor=#314354;fontColor=#ffffff;rounded=1;glass=1;" vertex="1" parent="1">
          <mxGeometry x="650" y="400" width="230" height="280" as="geometry" />
        </mxCell>
        <mxCell id="WLACIexDh8U1j82Fo1IX-12" value="Plasma Control System" style="whiteSpace=wrap;html=1;shadow=1;fontSize=18;fillColor=#647687;strokeColor=#314354;fontColor=#ffffff;rounded=1;glass=1;sketch=0;" vertex="1" parent="1">
          <mxGeometry x="1010" y="420" width="117" height="160" as="geometry" />
        </mxCell>
        <mxCell id="WLACIexDh8U1j82Fo1IX-13" value="&lt;font style=&quot;font-size: 24px&quot;&gt;Plant Model&lt;/font&gt;" style="rounded=1;whiteSpace=wrap;html=1;shadow=1;glass=1;" vertex="1" parent="1">
          <mxGeometry x="680" y="430" width="175" height="60" as="geometry" />
        </mxCell>
        <mxCell id="WLACIexDh8U1j82Fo1IX-14" value="" style="shape=flexArrow;endArrow=classic;startArrow=classic;html=1;entryX=0;entryY=0.25;entryDx=0;entryDy=0;exitX=1;exitY=0.5;exitDx=0;exitDy=0;strokeColor=#30765C;fillColor=#000000;sketch=0;shadow=1;" edge="1" parent="1" source="WLACIexDh8U1j82Fo1IX-13" target="WLACIexDh8U1j82Fo1IX-12">
          <mxGeometry width="50" height="50" relative="1" as="geometry">
            <mxPoint x="900" y="455" as="sourcePoint" />
            <mxPoint x="950" y="405" as="targetPoint" />
          </mxGeometry>
        </mxCell>
        <mxCell id="WLACIexDh8U1j82Fo1IX-15" value="&lt;font style=&quot;font-size: 18px&quot;&gt;Data logging/Analysis&lt;/font&gt;" style="rounded=1;whiteSpace=wrap;html=1;shadow=1;glass=1;" vertex="1" parent="1">
          <mxGeometry x="680" y="510" width="180" height="60" as="geometry" />
        </mxCell>
        <mxCell id="WLACIexDh8U1j82Fo1IX-16" value="" style="shape=flexArrow;endArrow=classic;html=1;entryX=1;entryY=0.5;entryDx=0;entryDy=0;exitX=0;exitY=0.75;exitDx=0;exitDy=0;fillColor=#f9f7ed;strokeColor=#36393d;rounded=1;shadow=1;sketch=0;" edge="1" parent="1" source="WLACIexDh8U1j82Fo1IX-12" target="WLACIexDh8U1j82Fo1IX-15">
          <mxGeometry width="50" height="50" relative="1" as="geometry">
            <mxPoint x="860" y="620" as="sourcePoint" />
            <mxPoint x="910" y="570" as="targetPoint" />
          </mxGeometry>
        </mxCell>
        <mxCell id="WLACIexDh8U1j82Fo1IX-17" value="&lt;font style=&quot;font-size: 24px&quot;&gt;Simulus file&lt;/font&gt;" style="rounded=1;whiteSpace=wrap;html=1;shadow=1;glass=1;" vertex="1" parent="1">
          <mxGeometry x="680" y="600" width="180" height="50" as="geometry" />
        </mxCell>
        <mxCell id="WLACIexDh8U1j82Fo1IX-18" value="" style="shape=flexArrow;endArrow=classic;html=1;exitX=1;exitY=0.5;exitDx=0;exitDy=0;entryX=0.5;entryY=1;entryDx=0;entryDy=0;fillColor=#f9f7ed;strokeColor=#36393d;shadow=1;sketch=0;" edge="1" parent="1" source="WLACIexDh8U1j82Fo1IX-17" target="WLACIexDh8U1j82Fo1IX-12">
          <mxGeometry width="50" height="50" relative="1" as="geometry">
            <mxPoint x="970" y="620" as="sourcePoint" />
            <mxPoint x="1020" y="570" as="targetPoint" />
            <Array as="points">
              <mxPoint x="1000" y="625" />
              <mxPoint x="1069" y="625" />
            </Array>
          </mxGeometry>
        </mxCell>
        <mxCell id="WLACIexDh8U1j82Fo1IX-19" value="&lt;font style=&quot;font-size: 24px&quot;&gt;non-real-time operating system&lt;/font&gt;" style="text;html=1;strokeColor=none;fillColor=none;align=center;verticalAlign=middle;whiteSpace=wrap;rounded=0;shadow=1;glass=0;sketch=0;" vertex="1" parent="1">
          <mxGeometry x="134.19" y="400" width="305.81" height="50" as="geometry" />
        </mxCell>
        <mxCell id="WLACIexDh8U1j82Fo1IX-20" value="&lt;font style=&quot;font-size: 17px&quot;&gt;real-time operating system&lt;/font&gt;" style="text;html=1;strokeColor=none;fillColor=none;align=center;verticalAlign=middle;whiteSpace=wrap;rounded=0;shadow=1;glass=0;sketch=0;" vertex="1" parent="1">
          <mxGeometry x="653.4699999999999" y="400" width="223.07" height="20" as="geometry" />
        </mxCell>
        <mxCell id="WLACIexDh8U1j82Fo1IX-21" value="Model In Loop" style="text;strokeColor=none;fillColor=none;html=1;fontSize=24;fontStyle=1;verticalAlign=middle;align=center;shadow=1;glass=0;rounded=0;sketch=0;" vertex="1" parent="1">
          <mxGeometry x="144" y="340" width="265" height="40" as="geometry" />
        </mxCell>
        <mxCell id="WLACIexDh8U1j82Fo1IX-22" value="Hardware in loop" style="text;strokeColor=none;fillColor=none;html=1;fontSize=24;fontStyle=1;verticalAlign=middle;align=center;shadow=1;" vertex="1" parent="1">
          <mxGeometry x="760" y="340" width="265" height="40" as="geometry" />
        </mxCell>
      </root>
    </mxGraphModel>
  </diagram>
</mxfile>
